<mxfile host="65bd71144e">
    <diagram id="S7fIKg1wvl-uXSBrzMB5" name="Page-1">
        <mxGraphModel dx="2626" dy="1971" grid="0" gridSize="10" guides="1" tooltips="1" connect="1" arrows="1" fold="1" page="0" pageScale="1" pageWidth="850" pageHeight="1100" background="#ffffff" math="0" shadow="0">
            <root>
                <mxCell id="0"/>
                <mxCell id="1" parent="0"/>
                <mxCell id="24" value="" style="rounded=0;whiteSpace=wrap;html=1;labelBackgroundColor=none;fontSize=14;fontColor=#000000;strokeColor=#FF8000;strokeWidth=2;fillColor=none;dashed=1;dashPattern=1 1;" vertex="1" parent="1">
                    <mxGeometry x="-420" y="-580" width="140" height="190" as="geometry"/>
                </mxCell>
                <mxCell id="49" value="" style="endArrow=classic;startArrow=classic;html=1;rounded=0;fontSize=14;fontColor=#000000;strokeColor=#B20000;entryX=0;entryY=0.5;entryDx=0;entryDy=0;exitX=0.5;exitY=1;exitDx=0;exitDy=0;edgeStyle=orthogonalEdgeStyle;strokeWidth=2;fillColor=#e51400;" edge="1" parent="1" source="3" target="19">
                    <mxGeometry width="50" height="50" relative="1" as="geometry">
                        <mxPoint x="-10" y="-305" as="sourcePoint"/>
                        <mxPoint x="90" y="-275" as="targetPoint"/>
                        <Array as="points">
                            <mxPoint x="-60" y="-310"/>
                        </Array>
                    </mxGeometry>
                </mxCell>
                <mxCell id="33" value="authenticate and get tokens" style="rounded=0;whiteSpace=wrap;html=1;labelBackgroundColor=none;fontSize=14;fontColor=#000000;strokeColor=#FF8000;strokeWidth=2;fillColor=none;labelPosition=center;verticalLabelPosition=bottom;align=center;verticalAlign=top;" vertex="1" parent="1">
                    <mxGeometry x="200" y="-740" width="200" height="100" as="geometry"/>
                </mxCell>
                <mxCell id="2" value="" style="shape=image;verticalLabelPosition=bottom;labelBackgroundColor=#ffffff;verticalAlign=top;aspect=fixed;imageAspect=0;image=data:image/svg+xml,PHN2ZyB4bWxucz0iaHR0cDovL3d3dy53My5vcmcvMjAwMC9zdmciIHhtbG5zOnhsaW5rPSJodHRwOi8vd3d3LnczLm9yZy8xOTk5L3hsaW5rIiB3aWR0aD0iNDRweCIgaGVpZ2h0PSI0NHB4IiB2aWV3Qm94PSIwIDAgNDQgNDQiIHZlcnNpb249IjEuMSI+CiAgICA8IS0tIEdlbmVyYXRvcjogU2tldGNoIDU1LjIgKDc4MTgxKSAtIGh0dHBzOi8vc2tldGNoYXBwLmNvbSAtLT4KICAgIDx0aXRsZT5BV1MtQ2xvdWQtRGV2ZWxvcG1lbnQtS2l0XzQ4X1NxdWlkPC90aXRsZT4KICAgIDxkZXNjPkNyZWF0ZWQgd2l0aCBTa2V0Y2guPC9kZXNjPgogICAgPGcgaWQ9IlBhZ2UtMSIgc3Ryb2tlPSJub25lIiBzdHJva2Utd2lkdGg9IjEiIGZpbGw9Im5vbmUiIGZpbGwtcnVsZT0iZXZlbm9kZCI+CiAgICAgICAgPGcgaWQ9IkFXUy1Qcm9kdWN0LUljb25zX1NxdWlkIiB0cmFuc2Zvcm09InRyYW5zbGF0ZSgtMTQzLjAwMDAwMCwgLTMyNS4wMDAwMDApIiBmaWxsPSIjMjMyRjNEIj4KICAgICAgICAgICAgPHBhdGggZD0iTTE4NywzNDUuNTM3MDkgQzE4NywzNTEuMDMxMDkgMTgzLjIxOSwzNTMuMDQ3MDkgMTgwLjk2NiwzNTMuNzYwMDkgTDE4MC4zNjIsMzUxLjg1MjA5IEMxODIuNDc5LDM1MS4xODQwOSAxODUsMzQ5LjU0NTA5IDE4NSwzNDUuNTM3MDkgQzE4NSwzNDAuNDY3MDkgMTgwLjgxMSwzMzkuMjAwMDkgMTc5LjAxLDMzOC44OTAwOSBDMTc4LjQ4MiwzMzguODAwMDkgMTc4LjEyMSwzMzguMzExMDkgMTc4LjE4NywzMzcuNzg0MDkgQzE3OC4wMDUsMzM1LjUwNjA5IDE3Ni45NDgsMzMzLjg3MjA5IDE3NS4zNDksMzMzLjQwNTA5IEMxNzQuMDI0LDMzMy4wMTgwOSAxNzIuNjA4LDMzMy41MzMwOSAxNzEuNzM1LDMzNC43MTcwOSBDMTcxLjUxNiwzMzUuMDE0MDkgMTcxLjE0NywzMzUuMTY0MDkgMTcwLjc4MywzMzUuMTEyMDkgQzE3MC40MTcsMzM1LjA1NzA5IDE3MC4xMTEsMzM0LjgwNTA5IDE2OS45ODgsMzM0LjQ1NjA5IEMxNjkuMzU3LDMzMi42NzMwOSAxNjguNDQ2LDMzMS4xNzYwOSAxNjcuMjgsMzMwLjAwNjA5IEMxNjUuODUsMzI4LjU3MTA5IDE2MS45MywzMjUuNDg4MDkgMTU2LjM5MSwzMjcuODMzMDkgQzE1My4xOTUsMzI5LjE4NjA5IDE1MC42OTIsMzMzLjA4NzA5IDE1MC42OTIsMzM2LjcxNDA5IEMxNTAuNjkyLDMzNy4xMjIwOSAxNTAuNzE3LDMzNy41MjkwOSAxNTAuNzY1LDMzNy45MjIwOSBDMTUwLjgyNCwzMzguNDIxMDkgMTUwLjUwNiwzMzguODg3MDkgMTUwLjAxOSwzMzkuMDEyMDkgQzE0OC4xNDUsMzM5LjQ4OTA5IDE0NSwzNDAuOTY0MDkgMTQ1LDM0NS40NzIwOSBDMTQ1LDM0NS42MjAwOSAxNDUuMDA0LDM0NS43NjYwOSAxNDUuMDExLDM0NS45MDgwOSBDMTQ1LjE1MSwzNDguODA3MDkgMTQ3LjI4OSwzNTEuMjk4MDkgMTUwLjIwOCwzNTEuOTY4MDkgTDE0OS43NjEsMzUzLjkxNzA5IEMxNDUuOTcyLDM1My4wNDgwOSAxNDMuMTk3LDM0OS43OTUwOSAxNDMuMDEzLDM0Ni4wMDYwOSBDMTQzLjAwNCwzNDUuODMyMDkgMTQzLDM0NS42NTQwOSAxNDMsMzQ1LjQ3MjA5IEMxNDMsMzQwLjEzMTA5IDE0Ni41MjEsMzM4LjA3ODA5IDE0OC43MDcsMzM3LjMxOTA5IEMxNDguNjk3LDMzNy4xMTgwOSAxNDguNjkyLDMzNi45MTYwOSAxNDguNjkyLDMzNi43MTQwOSBDMTQ4LjY5MiwzMzIuMjcxMDkgMTUxLjY2NywzMjcuNjYyMDkgMTU1LjYxMSwzMjUuOTkxMDkgQzE2MC4yMzEsMzI0LjAzNjA5IDE2NS4xMjMsMzI1LjAwOTA5IDE2OC42OTYsMzI4LjU5NDA5IEMxNjkuNzQyLDMyOS42NDMwOSAxNzAuNjEsMzMwLjkwMzA5IDE3MS4yODcsMzMyLjM1MjA5IEMxNzIuNjA5LDMzMS4zNTUwOSAxNzQuMjk2LDMzMS4wMTYwOSAxNzUuOTA5LDMzMS40ODUwOSBDMTc4LjE5NywzMzIuMTU0MDkgMTc5Ljc0LDMzNC4yMjIwOSAxODAuMTIyLDMzNy4wODAwOSBDMTgzLjU3OCwzMzcuOTMwMDkgMTg3LDM0MC41MjcwOSAxODcsMzQ1LjUzNzA5IEwxODcsMzQ1LjUzNzA5IFogTTE3OCwzNjMuMTI5MDkgTDE3MywzNjUuOTg2MDkgTDE3MywzNTkuMjg5MDkgTDE3OCwzNTYuNDMyMDkgTDE3OCwzNjMuMTI5MDkgWiBNMTcyLDM1Ny41NTgwOSBMMTY2Ljk5MSwzNTQuNzA2MDkgTDE3Mi4wMDEsMzUxLjczOTA5IEwxNzcuMDA5LDM1NC42OTUwOSBMMTcyLDM1Ny41NTgwOSBaIE0xNjQsMzYzLjE0NzA5IEwxNTksMzY2LjAwMzA5IEwxNTksMzU5LjI4ODA5IEwxNjQsMzU2LjQyMTA5IEwxNjQsMzYzLjE0NzA5IFogTTE1MS45NjIsMzU2LjQzODA5IEwxNTcsMzU5LjI5MjA5IEwxNTcsMzY1Ljg4MTA5IEwxNTEuOTYyLDM2Mi41OTcwOSBMMTUxLjk2MiwzNTYuNDM4MDkgWiBNMTY0Ljk4MSwzMzkuODYzMDkgTDE2OS45ODYsMzQyLjcyNDA5IEwxNjQuOTk4LDM0NS41NTkwOSBMMTYwLjAxMywzNDIuNzQ2MDkgTDE2NC45ODEsMzM5Ljg2MzA5IFogTTE3MSwzNTAuMDA3MDkgTDE2NiwzNTIuOTY5MDkgTDE2NiwzNDcuMjkwMDkgTDE3MSwzNDQuNDQ4MDkgTDE3MSwzNTAuMDA3MDkgWiBNMTY0LDM1Mi45NDcwOSBMMTU5LDM1MC4wMDUwOSBMMTU5LDM0NC40NzEwOSBMMTY0LDM0Ny4yOTMwOSBMMTY0LDM1Mi45NDcwOSBaIE0xNTcuOTk3LDM1Ny41NTgwOSBMMTUyLjk2MSwzNTQuNzA2MDkgTDE1OCwzNTEuNzM3MDkgTDE2My4wMDksMzU0LjY4MzA5IEwxNTcuOTk3LDM1Ny41NTgwOSBaIE0xNzEsMzY1Ljk5MDA5IEwxNjYsMzYzLjE0NjA5IEwxNjYsMzU2LjQ0MzA5IEwxNzEsMzU5LjI5MDA5IEwxNzEsMzY1Ljk5MDA5IFogTTE3OS41MDgsMzUzLjg0OTA5IEwxNzkuNTA5LDM1My44NDgwOSBMMTczLDM1MC4wMDYwOSBMMTczLDM0Mi43MjgwOSBDMTczLDM0Mi4zNzIwOSAxNzIuODExLDM0Mi4wNDMwOSAxNzIuNTAzLDM0MS44NjQwOSBDMTcyLjQ4NCwzNDEuODUzMDkgMTcyLjQ2NSwzNDEuODQ5MDkgMTcyLjQ0NiwzNDEuODQwMDkgTDE3Mi40NTIsMzQxLjgyOTA5IEwxNjUuNDc0LDMzNy44NDEwOSBDMTY1LjE2NCwzMzcuNjYzMDkgMTY0Ljc4MywzMzcuNjY1MDkgMTY0LjQ3NiwzMzcuODQ0MDkgTDE1Ny40OTgsMzQxLjg5NDA5IEwxNTcuNDk2LDM0MS44OTUwOSBDMTU3LjE4OCwzNDIuMDc1MDkgMTU3LDM0Mi40MDMwOSAxNTcsMzQyLjc1OTA5IEwxNTcsMzUwLjAwNTA5IEwxNTAuNDU0LDM1My44NjEwOSBMMTUwLjQ1NSwzNTMuODYyMDkgQzE1MC4xNSwzNTQuMDQyMDkgMTQ5Ljk2MiwzNTQuMzY5MDkgMTQ5Ljk2MiwzNTQuNzIzMDkgTDE0OS45NjIsMzYzLjEzOTA5IEMxNDkuOTYyLDM2My40NzcwOSAxNTAuMTMzLDM2My43OTIwOSAxNTAuNDE2LDM2My45NzcwOSBMMTU3LjQ1NCwzNjguNTY0MDkgTDE1Ny40NTcsMzY4LjU1OTA5IEMxNTcuNDcyLDM2OC41NjkwOSAxNTcuNDgyLDM2OC41ODIwOSAxNTcuNDk4LDM2OC41OTEwOSBDMTU3LjY1MywzNjguNjgyMDkgMTU3LjgyNiwzNjguNzI2MDkgMTU4LDM2OC43MjYwOSBDMTU4LjE3MSwzNjguNzI2MDkgMTU4LjM0MywzNjguNjgzMDkgMTU4LjQ5NiwzNjguNTk1MDkgTDE2NS4wMDEsMzY0Ljg3ODA5IEwxNzEuNDk4LDM2OC41NzQwOSBMMTcxLjUwNiwzNjguNTc4MDkgTDE3MS41MDYsMzY4LjU3NzA5IEMxNzEuNjU5LDM2OC42NjQwOSAxNzEuODI5LDM2OC43MDkwOSAxNzIsMzY4LjcwOTA5IEMxNzIuMTcxLDM2OC43MDkwOSAxNzIuMzQzLDM2OC42NjUwOSAxNzIuNDk2LDM2OC41NzcwOSBMMTc5LjQ5NiwzNjQuNTc3MDkgQzE3OS44MDgsMzY0LjM5OTA5IDE4MCwzNjQuMDY4MDkgMTgwLDM2My43MDkwOSBMMTgwLDM1NC43MDkwOSBDMTgwLDM1NC4zNTUwOSAxNzkuODEzLDM1NC4wMjgwOSAxNzkuNTA4LDM1My44NDkwOSBMMTc5LjUwOCwzNTMuODQ5MDkgWiIgaWQ9IkFXUy1DbG91ZC1EZXZlbG9wbWVudC1LaXRfNDhfU3F1aWQiLz4KICAgICAgICA8L2c+CiAgICA8L2c+Cjwvc3ZnPg==;" parent="1" vertex="1">
                    <mxGeometry x="-610" y="-870" width="40" height="40" as="geometry"/>
                </mxCell>
                <mxCell id="68" style="edgeStyle=orthogonalEdgeStyle;rounded=0;html=1;fontSize=14;fontColor=#000000;strokeColor=#000000;exitX=0;exitY=0.75;exitDx=0;exitDy=0;" edge="1" parent="1" source="3" target="55">
                    <mxGeometry relative="1" as="geometry"/>
                </mxCell>
                <mxCell id="3" value="opensearch&#10;domain" style="shape=image;verticalLabelPosition=bottom;labelBackgroundColor=#FFFFFF;verticalAlign=bottom;aspect=fixed;imageAspect=0;image=data:image/svg+xml,PHN2ZyB4bWxucz0iaHR0cDovL3d3dy53My5vcmcvMjAwMC9zdmciIHZpZXdCb3g9IjAgMCA2NCA2NCIgZmlsbD0ibm9uZSI+CjxwYXRoIGQ9Ik02MS43Mzc0IDIzLjVDNjAuNDg3OCAyMy41IDU5LjQ3NDggMjQuNTEzIDU5LjQ3NDggMjUuNzYyNkM1OS40NzQ4IDQ0LjM4MTMgNDQuMzgxMyA1OS40NzQ4IDI1Ljc2MjYgNTkuNDc0OEMyNC41MTMgNTkuNDc0OCAyMy41IDYwLjQ4NzggMjMuNSA2MS43Mzc0QzIzLjUgNjIuOTg3IDI0LjUxMyA2NCAyNS43NjI2IDY0QzQ2Ljg4MDUgNjQgNjQgNDYuODgwNSA2NCAyNS43NjI2QzY0IDI0LjUxMyA2Mi45ODcgMjMuNSA2MS43Mzc0IDIzLjVaIiBmaWxsPSIjMDA1RUI4Ii8+CjxwYXRoIGQ9Ik00OC4wODE0IDM4QzUwLjI1NzIgMzQuNDUwNSA1Mi4zNjE1IDI5LjcxNzggNTEuOTQ3NSAyMy4wOTIxQzUxLjA4OTkgOS4zNjcyNSAzOC42NTg5IC0xLjA0NDYzIDI2LjkyMDYgMC4wODM3MzI3QzIyLjMyNTMgMC41MjU0NjUgMTcuNjA2OCA0LjI3MTIgMTguMDI2IDEwLjk4MDVDMTguMjA4MiAxMy44OTYxIDE5LjYzNTIgMTUuNjE2OSAyMS45NTQ0IDE2LjkzOTlDMjQuMTYxOCAxOC4xOTkyIDI2Ljk5NzggMTguOTk2OSAzMC4yMTI4IDE5LjkwMTFDMzQuMDk2MiAyMC45OTM0IDM4LjYwMDkgMjIuMjIwMyA0Mi4wNjMgMjQuNzcxN0M0Ni4yMTI1IDI3LjgyOTUgNDkuMDQ5MSAzMS4zNzQzIDQ4LjA4MTQgMzhaIiBmaWxsPSIjMDAzQjVDIi8+CjxwYXRoIGQ9Ik0zLjkxODYxIDE0QzEuNzQyNzYgMTcuNTQ5NSAtMC4zNjE1MDYgMjIuMjgyMiAwLjA1MjQ5MzEgMjguOTA3OUMwLjkxMDA3MiA0Mi42MzI3IDEzLjM0MTEgNTMuMDQ0NiAyNS4wNzk0IDUxLjkxNjNDMjkuNjc0NyA1MS40NzQ1IDM0LjM5MzIgNDcuNzI4OCAzMy45NzQgNDEuMDE5NUMzMy43OTE4IDM4LjEwMzkgMzIuMzY0NyAzNi4zODMxIDMwLjA0NTYgMzUuMDYwMUMyNy44MzgyIDMzLjgwMDggMjUuMDAyMiAzMy4wMDMxIDIxLjc4NzIgMzIuMDk4OUMxNy45MDM4IDMxLjAwNjYgMTMuMzk5MSAyOS43Nzk3IDkuOTM2OTQgMjcuMjI4M0M1Ljc4NzQ2IDI0LjE3MDQgMi45NTA5MiAyMC42MjU3IDMuOTE4NjEgMTRaIiBmaWxsPSIjMDA1RUI4Ii8+Cjwvc3ZnPg==;fontColor=#000000;fontSize=14;" parent="1" vertex="1">
                    <mxGeometry x="-90" y="-520" width="60" height="60" as="geometry"/>
                </mxCell>
                <mxCell id="80" style="edgeStyle=orthogonalEdgeStyle;rounded=0;html=1;entryX=0;entryY=0.5;entryDx=0;entryDy=0;entryPerimeter=0;fontSize=14;fontColor=#FFFFFF;strokeColor=#131D25;strokeWidth=2;exitX=1.036;exitY=0.499;exitDx=0;exitDy=0;exitPerimeter=0;" edge="1" parent="1" source="9" target="11">
                    <mxGeometry relative="1" as="geometry">
                        <Array as="points"/>
                    </mxGeometry>
                </mxCell>
                <mxCell id="9" value="&lt;font style=&quot;font-size: 14px;&quot;&gt;user&lt;/font&gt;" style="html=1;verticalLabelPosition=bottom;align=center;labelBackgroundColor=none;verticalAlign=top;strokeWidth=2;strokeColor=#0080F0;shadow=0;dashed=0;shape=mxgraph.ios7.icons.user;fillColor=none;fontColor=#000000;fontSize=14;" parent="1" vertex="1">
                    <mxGeometry x="-680" y="-550" width="40" height="40" as="geometry"/>
                </mxCell>
                <mxCell id="82" style="edgeStyle=orthogonalEdgeStyle;rounded=0;html=1;entryX=0.005;entryY=0.63;entryDx=0;entryDy=0;entryPerimeter=0;fontSize=14;fontColor=#FFFFFF;strokeColor=#131D25;strokeWidth=2;" edge="1" parent="1" source="11" target="10">
                    <mxGeometry relative="1" as="geometry"/>
                </mxCell>
                <mxCell id="11" value="&lt;font color=&quot;#000000&quot; style=&quot;font-size: 14px;&quot;&gt;ALB&lt;/font&gt;" style="outlineConnect=0;dashed=0;verticalLabelPosition=bottom;verticalAlign=top;align=center;html=1;shape=mxgraph.aws3.application_load_balancer;fillColor=#F58534;gradientColor=none;fontSize=14;" parent="1" vertex="1">
                    <mxGeometry x="-510" y="-550" width="40" height="40" as="geometry"/>
                </mxCell>
                <mxCell id="14" value="Authenticated&lt;br&gt;role" style="sketch=0;points=[[0,0,0],[0.25,0,0],[0.5,0,0],[0.75,0,0],[1,0,0],[0,1,0],[0.25,1,0],[0.5,1,0],[0.75,1,0],[1,1,0],[0,0.25,0],[0,0.5,0],[0,0.75,0],[1,0.25,0],[1,0.5,0],[1,0.75,0]];outlineConnect=0;fontColor=#232F3E;gradientColor=#F54749;gradientDirection=north;fillColor=#C7131F;strokeColor=#ffffff;dashed=0;verticalLabelPosition=bottom;verticalAlign=top;align=center;html=1;fontSize=14;fontStyle=0;aspect=fixed;shape=mxgraph.aws4.resourceIcon;resIcon=mxgraph.aws4.cognito;" parent="1" vertex="1">
                    <mxGeometry x="310" y="-345" width="40" height="40" as="geometry"/>
                </mxCell>
                <mxCell id="16" value="" style="outlineConnect=0;dashed=0;verticalLabelPosition=bottom;verticalAlign=top;align=center;html=1;shape=mxgraph.aws3.cognito;fillColor=#AD688B;gradientColor=none;fontColor=#000000;fontSize=14;" parent="1" vertex="1">
                    <mxGeometry x="225" y="-350" width="50" height="50" as="geometry"/>
                </mxCell>
                <mxCell id="19" value="&lt;font color=&quot;#000000&quot;&gt;cognito identity pool&lt;/font&gt;" style="rounded=0;whiteSpace=wrap;html=1;fontSize=14;labelBackgroundColor=none;fillColor=none;strokeColor=#FF8000;strokeWidth=2;labelPosition=center;verticalLabelPosition=bottom;align=center;verticalAlign=top;" vertex="1" parent="1">
                    <mxGeometry x="200" y="-370" width="200" height="120" as="geometry"/>
                </mxCell>
                <mxCell id="15" value="user pool" style="outlineConnect=0;dashed=0;verticalLabelPosition=bottom;verticalAlign=top;align=center;html=1;shape=mxgraph.aws3.cognito;fillColor=#AD688B;gradientColor=none;fontColor=#000000;fontSize=14;" parent="1" vertex="1">
                    <mxGeometry x="280" y="-720" width="40" height="50" as="geometry"/>
                </mxCell>
                <mxCell id="41" value="1" style="ellipse;whiteSpace=wrap;html=1;aspect=fixed;strokeWidth=2;fontFamily=Tahoma;spacingBottom=4;spacingRight=2;strokeColor=#CC0000;labelBackgroundColor=none;fontSize=14;fontColor=#000000;fillColor=none;" vertex="1" parent="1">
                    <mxGeometry x="-320" y="-560" width="20" height="20" as="geometry"/>
                </mxCell>
                <mxCell id="46" value="3a" style="ellipse;whiteSpace=wrap;html=1;aspect=fixed;strokeWidth=2;fontFamily=Tahoma;spacingBottom=4;spacingRight=2;strokeColor=#CC0000;labelBackgroundColor=none;fontSize=14;fontColor=#000000;fillColor=none;" vertex="1" parent="1">
                    <mxGeometry x="160" y="-530" width="20" height="20" as="geometry"/>
                </mxCell>
                <mxCell id="47" value="3b" style="ellipse;whiteSpace=wrap;html=1;aspect=fixed;strokeWidth=2;fontFamily=Tahoma;spacingBottom=4;spacingRight=2;strokeColor=#CC0000;labelBackgroundColor=none;fontSize=14;fontColor=#000000;fillColor=none;" vertex="1" parent="1">
                    <mxGeometry x="160" y="-335" width="20" height="20" as="geometry"/>
                </mxCell>
                <mxCell id="48" value="" style="endArrow=classic;startArrow=classic;html=1;rounded=0;fontSize=14;fontColor=#000000;strokeColor=#B20000;entryX=0;entryY=0.5;entryDx=0;entryDy=0;exitX=1;exitY=0.5;exitDx=0;exitDy=0;edgeStyle=orthogonalEdgeStyle;fillColor=#e51400;strokeWidth=2;" edge="1" parent="1" source="3" target="32">
                    <mxGeometry width="50" height="50" relative="1" as="geometry">
                        <mxPoint x="220" y="-430" as="sourcePoint"/>
                        <mxPoint x="270" y="-480" as="targetPoint"/>
                        <Array as="points">
                            <mxPoint x="140" y="-490"/>
                            <mxPoint x="140" y="-490"/>
                        </Array>
                    </mxGeometry>
                </mxCell>
                <mxCell id="50" value="" style="endArrow=classic;startArrow=classic;html=1;rounded=0;fontSize=14;fontColor=#000000;strokeColor=#B20000;entryX=0;entryY=0.5;entryDx=0;entryDy=0;exitX=0.5;exitY=0;exitDx=0;exitDy=0;edgeStyle=orthogonalEdgeStyle;fillColor=#e51400;strokeWidth=2;" edge="1" parent="1" source="3" target="33">
                    <mxGeometry width="50" height="50" relative="1" as="geometry">
                        <mxPoint x="50" y="-480" as="sourcePoint"/>
                        <mxPoint x="150" y="-450" as="targetPoint"/>
                        <Array as="points">
                            <mxPoint x="-60" y="-690"/>
                        </Array>
                    </mxGeometry>
                </mxCell>
                <mxCell id="29" value="" style="rounded=1;whiteSpace=wrap;html=1;labelBackgroundColor=none;fontSize=14;fontColor=#000000;strokeColor=#FF8000;strokeWidth=2;fillColor=none;dashed=1;dashPattern=1 1;" vertex="1" parent="1">
                    <mxGeometry x="120" y="-810" width="340" height="620" as="geometry"/>
                </mxCell>
                <mxCell id="28" value="" style="outlineConnect=0;dashed=0;verticalLabelPosition=bottom;verticalAlign=top;align=center;html=1;shape=mxgraph.aws3.cloud_2;fillColor=#F58534;gradientColor=none;labelBackgroundColor=none;fontSize=14;fontColor=#000000;strokeColor=#FF8000;strokeWidth=2;" vertex="1" parent="1">
                    <mxGeometry x="190.0035294117647" y="-830" width="38.8235294117647" height="40" as="geometry"/>
                </mxCell>
                <mxCell id="64" style="edgeStyle=orthogonalEdgeStyle;rounded=0;html=1;fontSize=14;fontColor=#000000;strokeColor=#B20000;entryX=0;entryY=0.5;entryDx=0;entryDy=0;fillColor=#e51400;strokeWidth=2;" edge="1" parent="1" source="10" target="3">
                    <mxGeometry relative="1" as="geometry">
                        <Array as="points">
                            <mxPoint x="-250" y="-535"/>
                            <mxPoint x="-250" y="-490"/>
                        </Array>
                    </mxGeometry>
                </mxCell>
                <mxCell id="10" value="nginx" style="sketch=0;html=1;dashed=0;whitespace=wrap;fillColor=#2875E2;strokeColor=#ffffff;points=[[0.005,0.63,0],[0.1,0.2,0],[0.9,0.2,0],[0.5,0,0],[0.995,0.63,0],[0.72,0.99,0],[0.5,1,0],[0.28,0.99,0]];shape=mxgraph.kubernetes.icon;prIcon=pod;labelPosition=center;verticalLabelPosition=bottom;align=center;verticalAlign=top;fontColor=#000000;fontSize=14;" parent="1" vertex="1">
                    <mxGeometry x="-370" y="-555" width="40" height="40" as="geometry"/>
                </mxCell>
                <mxCell id="65" style="edgeStyle=orthogonalEdgeStyle;rounded=0;html=1;fontSize=14;fontColor=#000000;strokeColor=#131D25;strokeWidth=2;" edge="1" parent="1" source="23" target="55">
                    <mxGeometry relative="1" as="geometry">
                        <Array as="points">
                            <mxPoint x="-250" y="-452"/>
                            <mxPoint x="-250" y="-323"/>
                        </Array>
                    </mxGeometry>
                </mxCell>
                <mxCell id="23" value="event-exporter" style="sketch=0;html=1;dashed=0;whitespace=wrap;fillColor=#2875E2;strokeColor=#ffffff;points=[[0.005,0.63,0],[0.1,0.2,0],[0.9,0.2,0],[0.5,0,0],[0.995,0.63,0],[0.72,0.99,0],[0.5,1,0],[0.28,0.99,0]];shape=mxgraph.kubernetes.icon;prIcon=pod;labelPosition=center;verticalLabelPosition=bottom;align=center;verticalAlign=top;fontColor=#000000;fontSize=14;" vertex="1" parent="1">
                    <mxGeometry x="-370" y="-472.44" width="40" height="40" as="geometry"/>
                </mxCell>
                <mxCell id="57" value="" style="group" vertex="1" connectable="0" parent="1">
                    <mxGeometry x="-205" y="-350" width="140" height="95" as="geometry"/>
                </mxCell>
                <mxCell id="55" value="&lt;h2 id=&quot;principal-roles&quot; style=&quot;font-family: &amp;#34;helvetica&amp;#34; ; font-style: normal ; letter-spacing: normal ; text-align: center ; text-indent: 0px ; text-transform: none ; word-spacing: 0px&quot;&gt;&lt;br&gt;&lt;/h2&gt;" style="sketch=0;outlineConnect=0;fontColor=#000000;gradientColor=none;fillColor=#004C99;strokeColor=none;dashed=0;verticalLabelPosition=bottom;verticalAlign=top;align=center;html=1;fontSize=12;fontStyle=0;aspect=fixed;pointerEvents=1;shape=mxgraph.aws4.permissions;labelPosition=center;labelBackgroundColor=none;" vertex="1" parent="57">
                    <mxGeometry x="35" width="42.9" height="53.97" as="geometry"/>
                </mxCell>
                <mxCell id="56" value="&lt;h2 id=&quot;principal-roles&quot; style=&quot;text-align: center ; text-indent: 0px&quot;&gt;&lt;font face=&quot;helvetica&quot;&gt;&lt;span style=&quot;font-size: 14px ; font-weight: 400&quot;&gt;anonymous users&lt;br&gt;access policy&lt;/span&gt;&lt;/font&gt;&lt;/h2&gt;" style="text;whiteSpace=wrap;html=1;fontSize=14;fontColor=#000000;labelBackgroundColor=none;" vertex="1" parent="57">
                    <mxGeometry y="25" width="140" height="70" as="geometry"/>
                </mxCell>
                <mxCell id="59" value="" style="rounded=1;whiteSpace=wrap;html=1;labelBackgroundColor=none;fontSize=14;fontColor=#000000;strokeColor=#004C99;strokeWidth=2;fillColor=none;dashed=1;dashPattern=1 1;" vertex="1" parent="1">
                    <mxGeometry x="-210" y="-740" width="240" height="510" as="geometry"/>
                </mxCell>
                <mxCell id="71" style="edgeStyle=orthogonalEdgeStyle;rounded=0;html=1;entryX=0.5;entryY=0;entryDx=0;entryDy=0;entryPerimeter=0;fontSize=14;fontColor=#000000;strokeColor=#B20000;strokeWidth=2;fillColor=#e51400;" edge="1" parent="1" source="13" target="10">
                    <mxGeometry relative="1" as="geometry"/>
                </mxCell>
                <mxCell id="13" value="&lt;h2 id=&quot;principal-roles&quot; style=&quot;font-family: &amp;#34;helvetica&amp;#34; ; font-style: normal ; letter-spacing: normal ; text-align: center ; text-indent: 0px ; text-transform: none ; word-spacing: 0px&quot;&gt;&lt;br&gt;&lt;/h2&gt;" style="sketch=0;outlineConnect=0;fontColor=#000000;gradientColor=none;fillColor=#004C99;strokeColor=none;dashed=0;verticalLabelPosition=bottom;verticalAlign=top;align=center;html=1;fontSize=12;fontStyle=0;aspect=fixed;pointerEvents=1;shape=mxgraph.aws4.permissions;labelPosition=center;labelBackgroundColor=none;" parent="1" vertex="1">
                    <mxGeometry x="-170" y="-670" width="42.9" height="53.97" as="geometry"/>
                </mxCell>
                <mxCell id="54" value="&lt;h2 id=&quot;principal-roles&quot; style=&quot;font-style: normal ; letter-spacing: normal ; text-align: center ; text-indent: 0px ; text-transform: none ; word-spacing: 0px ; font-family: &amp;#34;helvetica&amp;#34;&quot;&gt;&lt;span style=&quot;font-weight: normal&quot;&gt;&lt;font style=&quot;font-size: 14px&quot;&gt;IAM role principals&lt;br&gt;access policy&lt;/font&gt;&lt;/span&gt;&lt;/h2&gt;&lt;div&gt;&lt;span style=&quot;font-weight: normal&quot;&gt;&lt;font style=&quot;font-size: 14px&quot;&gt;&lt;br&gt;&lt;/font&gt;&lt;/span&gt;&lt;/div&gt;" style="text;whiteSpace=wrap;html=1;fontSize=14;fontColor=#000000;labelBackgroundColor=none;" vertex="1" parent="1">
                    <mxGeometry x="-200" y="-646.03" width="140" height="70" as="geometry"/>
                </mxCell>
                <mxCell id="69" value="4" style="ellipse;whiteSpace=wrap;html=1;aspect=fixed;strokeWidth=2;fontFamily=Tahoma;spacingBottom=4;spacingRight=2;strokeColor=#CC0000;labelBackgroundColor=none;fontSize=14;fontColor=#000000;fillColor=none;" vertex="1" parent="1">
                    <mxGeometry x="-127.10000000000002" y="-555" width="20" height="20" as="geometry"/>
                </mxCell>
                <mxCell id="70" value="" style="endArrow=classic;startArrow=classic;html=1;rounded=0;fontSize=14;fontColor=#000000;strokeColor=#B20000;exitX=0;exitY=0.5;exitDx=0;exitDy=0;edgeStyle=orthogonalEdgeStyle;fillColor=#e51400;strokeWidth=2;entryX=0.5;entryY=1;entryDx=0;entryDy=0;" edge="1" parent="1" source="3" target="54">
                    <mxGeometry width="50" height="50" relative="1" as="geometry">
                        <mxPoint x="-50" y="-510" as="sourcePoint"/>
                        <mxPoint x="-153" y="-570" as="targetPoint"/>
                        <Array as="points">
                            <mxPoint x="-130" y="-490"/>
                        </Array>
                    </mxGeometry>
                </mxCell>
                <mxCell id="72" value="2" style="ellipse;whiteSpace=wrap;html=1;aspect=fixed;strokeWidth=2;fontFamily=Tahoma;spacingBottom=4;spacingRight=2;strokeColor=#CC0000;labelBackgroundColor=none;fontSize=14;fontColor=#000000;fillColor=none;" vertex="1" parent="1">
                    <mxGeometry x="160" y="-720" width="20" height="20" as="geometry"/>
                </mxCell>
                <mxCell id="73" value="&lt;font color=&quot;#ffffff&quot;&gt;Fine-grained access control&lt;/font&gt;" style="rounded=0;whiteSpace=wrap;html=1;labelBackgroundColor=none;fontSize=14;fontColor=#000000;strokeColor=#004C99;strokeWidth=2;fillColor=#004C99;" vertex="1" parent="1">
                    <mxGeometry x="-170" y="-770" width="120" height="60" as="geometry"/>
                </mxCell>
                <mxCell id="6" value="" style="sketch=0;points=[[0,0,0],[0.25,0,0],[0.5,0,0],[0.75,0,0],[1,0,0],[0,1,0],[0.25,1,0],[0.5,1,0],[0.75,1,0],[1,1,0],[0,0.25,0],[0,0.5,0],[0,0.75,0],[1,0.25,0],[1,0.5,0],[1,0.75,0]];outlineConnect=0;fontColor=#232F3E;gradientColor=#F78E04;gradientDirection=north;fillColor=#D05C17;strokeColor=#ffffff;dashed=0;verticalLabelPosition=bottom;verticalAlign=top;align=center;html=1;fontSize=12;fontStyle=0;aspect=fixed;shape=mxgraph.aws4.resourceIcon;resIcon=mxgraph.aws4.eks;" parent="1" vertex="1">
                    <mxGeometry x="-420" y="-580" width="30" height="30" as="geometry"/>
                </mxCell>
                <mxCell id="74" value="" style="rounded=1;whiteSpace=wrap;html=1;dashed=1;dashPattern=1 1;labelBackgroundColor=none;fontSize=14;fontColor=#000000;strokeColor=#FF8000;strokeWidth=2;fillColor=none;" vertex="1" parent="1">
                    <mxGeometry x="-570" y="-810" width="640" height="620" as="geometry"/>
                </mxCell>
                <mxCell id="4" value="" style="outlineConnect=0;dashed=0;verticalLabelPosition=bottom;verticalAlign=top;align=center;html=1;shape=mxgraph.aws3.virtual_private_cloud;fillColor=#F58534;gradientColor=none;" parent="1" vertex="1">
                    <mxGeometry x="-370" y="-830" width="53.33" height="40" as="geometry"/>
                </mxCell>
                <mxCell id="75" value="1" style="ellipse;whiteSpace=wrap;html=1;aspect=fixed;strokeWidth=2;fontFamily=Tahoma;spacingBottom=4;spacingRight=2;strokeColor=#009999;labelBackgroundColor=none;fontSize=14;fontColor=#000000;fillColor=none;" vertex="1" parent="1">
                    <mxGeometry x="-320" y="-480" width="20" height="20" as="geometry"/>
                </mxCell>
                <mxCell id="76" value="2" style="ellipse;whiteSpace=wrap;html=1;aspect=fixed;strokeWidth=2;fontFamily=Tahoma;spacingBottom=4;spacingRight=2;strokeColor=#009999;labelBackgroundColor=none;fontSize=14;fontColor=#000000;fillColor=none;" vertex="1" parent="1">
                    <mxGeometry x="-172" y="-407" width="20" height="20" as="geometry"/>
                </mxCell>
                <mxCell id="30" value="&lt;span style=&quot;font-size: 12px&quot;&gt;opensearch&lt;/span&gt;&lt;br style=&quot;font-size: 12px&quot;&gt;&lt;span style=&quot;font-size: 12px&quot;&gt;admin group&lt;/span&gt;" style="outlineConnect=0;dashed=0;verticalLabelPosition=bottom;verticalAlign=top;align=center;html=1;shape=mxgraph.aws3.cognito;fillColor=#AD688B;gradientColor=none;labelBackgroundColor=none;fontSize=14;fontColor=#000000;strokeColor=#FF8000;strokeWidth=2;" vertex="1" parent="1">
                    <mxGeometry x="230" y="-530" width="40" height="48" as="geometry"/>
                </mxCell>
                <mxCell id="31" value="opensearch&lt;br&gt;admin-auth-role" style="sketch=0;points=[[0,0,0],[0.25,0,0],[0.5,0,0],[0.75,0,0],[1,0,0],[0,1,0],[0.25,1,0],[0.5,1,0],[0.75,1,0],[1,1,0],[0,0.25,0],[0,0.5,0],[0,0.75,0],[1,0.25,0],[1,0.5,0],[1,0.75,0]];outlineConnect=0;fontColor=#000000;gradientColor=#F54749;gradientDirection=north;fillColor=#C7131F;strokeColor=#ffffff;dashed=0;verticalLabelPosition=bottom;verticalAlign=top;align=center;html=1;fontSize=12;fontStyle=0;aspect=fixed;shape=mxgraph.aws4.resourceIcon;resIcon=mxgraph.aws4.cognito;labelBackgroundColor=none;" vertex="1" parent="1">
                    <mxGeometry x="320" y="-530" width="40" height="40" as="geometry"/>
                </mxCell>
                <mxCell id="32" value="&lt;span&gt;cognito identity pool&lt;br&gt;choose-role-from-token&lt;br&gt;&lt;/span&gt;" style="rounded=0;whiteSpace=wrap;html=1;labelBackgroundColor=none;fontSize=14;fontColor=#000000;strokeColor=#FF8000;strokeWidth=2;fillColor=none;labelPosition=center;verticalLabelPosition=bottom;align=center;verticalAlign=top;" vertex="1" parent="1">
                    <mxGeometry x="200" y="-550" width="200" height="120" as="geometry"/>
                </mxCell>
                <mxCell id="83" value="" style="rounded=0;whiteSpace=wrap;html=1;labelBackgroundColor=none;fontSize=14;fontColor=#FFFFFF;strokeColor=#001933;strokeWidth=2;fillColor=none;" vertex="1" parent="1">
                    <mxGeometry x="-610" y="-870" width="1120" height="720" as="geometry"/>
                </mxCell>
                <mxCell id="84" value="5" style="ellipse;whiteSpace=wrap;html=1;aspect=fixed;strokeWidth=2;fontFamily=Tahoma;spacingBottom=4;spacingRight=2;strokeColor=#CC0000;labelBackgroundColor=none;fontSize=14;fontColor=#000000;fillColor=none;" vertex="1" parent="1">
                    <mxGeometry x="-200" y="-670" width="20" height="20" as="geometry"/>
                </mxCell>
            </root>
        </mxGraphModel>
    </diagram>
</mxfile>